# xmcd
#
# Track frame offsets: 
#        150
#        15587
#        37153
#        66686
#        88444
#        115695
#        138784
#        163062
#        191222
#        223110
#        232588
#        247304
#        269030
#        286182
#        301544
#        315051
#
# Disc length: 4384 seconds
#
# Revision: 2
# Processed by: cddbd v1.5.2PL0 Copyright (c) Steve Scherf et al.
# Submitted via: ExactAudioCopyFreeDBPlugin 1.0
#
DISCID=e8111e10
DTITLE=天才バンド - アリスとテレス
DYEAR=2015
DGENRE=
TTITLE0=ロックジェネレーション
TTITLE1=Joy to the world!
TTITLE2=好きだよ
TTITLE3=firefly
TTITLE4=ビューティフルグッバイ
TTITLE5=ダラダラ
TTITLE6=琴平電鉄~君だけのライフ~
TTITLE7=ロックライダー
TTITLE8=THIS IS LOVE
TTITLE9=FUNK YOU FUNK
TTITLE10=BLACK TAHITI GIRL
TTITLE11=CAT FOOD BLUES
TTITLE12=レッドホットチリ島
TTITLE13=SHIBUYA STRUT
TTITLE14=ONIGIRI
TTITLE15=ロックンロール(everybody rock and roll)
EXTD=Powerd by gracenote music web API
EXTT0=
EXTT1=
EXTT2=
EXTT3=
EXTT4=
EXTT5=
EXTT6=
EXTT7=
EXTT8=
EXTT9=
EXTT10=
EXTT11=
EXTT12=
EXTT13=
EXTT14=
EXTT15=
PLAYORDER=
